<?xml version="1.0" standalone="no"?>
<!DOCTYPE svg PUBLIC "-//W3C//DTD SVG 20010904//EN"
 "http://www.w3.org/TR/2001/REC-SVG-20010904/DTD/svg10.dtd">
<svg version="1.0" xmlns="http://www.w3.org/2000/svg"
 width="342.000000pt" height="346.000000pt" viewBox="0 0 342.000000 346.000000"
 preserveAspectRatio="xMidYMid meet">

<g transform="translate(0.000000,346.000000) scale(0.100000,-0.100000)"
fill="#000000" stroke="none">
<path d="M1520 3364 c-400 -48 -736 -209 -1010 -484 -246 -245 -395 -529 -466
-885 -25 -126 -25 -452 0 -580 22 -113 47 -195 59 -195 5 0 6 12 2 28 -30 111
-46 206 -56 323 -48 579 209 1132 686 1474 427 306 997 386 1496 209 235 -83
436 -211 614 -389 346 -346 515 -806 476 -1292 -7 -76 -18 -164 -25 -195 -11
-45 -11 -58 -2 -58 8 0 20 38 32 98 26 134 26 446 0 576 -72 357 -221 642
-466 886 -239 240 -531 396 -860 461 -102 20 -391 34 -480 23z"/>
<path d="M1665 2974 c-178 -43 -266 -86 -343 -169 -32 -34 -70 -87 -85 -119
-32 -67 -57 -176 -57 -246 0 -35 -9 -64 -31 -106 -18 -33 -39 -72 -47 -88 -25
-49 -20 -112 12 -145 15 -16 29 -39 31 -52 2 -13 8 -46 15 -74 6 -27 14 -82
17 -122 6 -88 28 -115 110 -139 44 -13 66 -14 125 -4 39 6 72 9 73 8 1 -2 10
-34 20 -72 25 -92 52 -117 79 -73 7 12 4 40 -13 104 -12 48 -27 94 -33 101
-11 13 -80 15 -143 3 -45 -8 -116 4 -127 22 -4 7 -7 35 -7 63 1 32 -5 60 -15
76 -9 14 -14 32 -10 41 3 9 2 22 -3 29 -4 7 -8 33 -8 57 0 38 -4 46 -29 60
-54 31 -54 40 4 147 49 93 53 105 60 194 11 133 38 197 120 281 104 106 213
150 379 151 147 1 255 -44 369 -152 36 -35 48 -40 88 -40 l45 0 -32 45 c-58
80 -164 153 -285 196 -58 20 -231 35 -279 23z"/>
<path d="M2030 2592 c-68 -20 -129 -78 -150 -142 -7 -25 -15 -85 -16 -133 -2
-82 -13 -117 -35 -117 -5 0 -10 52 -11 116 -2 96 -6 119 -20 127 -12 8 -21 7
-32 -2 -14 -11 -16 -42 -16 -203 0 -124 -3 -187 -10 -183 -5 3 -10 34 -10 69
0 110 -41 194 -115 234 -21 11 -57 16 -123 17 -114 0 -122 -7 -122 -104 0
-174 76 -251 248 -251 63 0 69 -2 99 -33 l33 -34 2 -189 3 -189 33 -3 32 -3 0
58 c0 55 3 61 38 96 36 35 41 37 102 37 170 0 239 70 240 241 0 110 -4 114
-119 114 -163 -1 -229 -67 -236 -234 -3 -92 -3 -91 -15 -91 -6 0 -10 58 -10
153 l0 153 45 44 46 45 95 1 c84 2 103 5 152 31 97 49 141 157 125 307 -6 54
-8 59 -39 72 -44 18 -145 16 -214 -4z m184 -68 c11 -28 6 -99 -9 -150 -24 -81
-69 -112 -174 -121 -83 -7 -101 6 -101 74 0 141 71 212 211 213 52 0 68 -4 73
-16z m-629 -228 c42 -18 75 -78 75 -139 0 -55 -13 -67 -74 -67 -89 0 -141 50
-146 140 -5 81 -6 80 55 80 31 0 71 -6 90 -14z m548 -312 c-1 -34 -8 -75 -17
-92 -20 -38 -71 -62 -135 -62 -62 0 -76 18 -66 91 12 88 68 130 165 126 l55
-2 -2 -61z"/>
<path d="M274 1250 c-55 -17 -127 -73 -158 -122 -33 -55 -46 -156 -27 -224 16
-60 70 -125 132 -159 43 -23 67 -29 119 -29 74 -1 145 22 179 58 l22 24 -21
42 -22 42 -27 -26 c-16 -15 -49 -33 -75 -41 -39 -12 -53 -12 -94 0 -130 39
-175 192 -84 288 38 41 74 57 126 57 55 0 93 -14 128 -47 l26 -25 22 42 c21
41 21 43 3 62 -47 52 -173 81 -249 58z"/>
<path d="M797 1246 c-127 -47 -198 -159 -184 -291 10 -97 67 -176 157 -218 61
-29 158 -29 220 -1 209 96 214 390 8 495 -53 27 -149 35 -201 15z m162 -104
c19 -9 48 -34 65 -55 27 -34 31 -47 31 -102 0 -55 -4 -68 -31 -102 -39 -48
-87 -73 -144 -73 -57 0 -105 25 -144 73 -27 34 -31 47 -31 102 0 55 4 68 31
102 39 48 87 73 144 73 25 0 60 -8 79 -18z"/>
<path d="M2595 1251 c-118 -31 -205 -143 -205 -266 0 -154 117 -268 275 -269
61 0 78 4 125 30 36 20 56 39 58 53 4 28 -2 27 -47 -9 -65 -52 -189 -57 -265
-11 -161 100 -151 335 19 424 29 15 59 21 105 21 65 0 104 -14 168 -61 23 -16
24 -16 20 7 -8 54 -164 105 -253 81z"/>
<path d="M1230 987 l0 -268 48 3 47 3 3 147 3 147 142 -149 142 -150 3 145 c1
80 6 145 10 145 4 0 71 -66 149 -147 l142 -148 1 268 0 268 -47 -3 -48 -3 -3
-145 -3 -145 -144 150 -144 150 -1 -155 0 -155 -150 155 -149 155 -1 -268z"/>
<path d="M2030 985 l0 -265 156 0 c120 0 155 3 152 13 -3 9 -43 13 -141 15
l-137 3 0 109 0 109 115 3 c68 2 115 7 115 13 0 6 -47 11 -115 13 l-115 3 0
109 0 109 135 3 c188 4 177 22 -15 26 l-150 3 0 -266z"/>
<path d="M2942 1238 c3 -9 31 -14 81 -16 l77 -3 0 -249 c0 -216 2 -250 15
-250 13 0 15 34 15 250 l0 249 77 3 c50 2 78 7 81 16 3 9 -36 12 -173 12 -137
0 -176 -3 -173 -12z"/>
<path d="M200 520 c0 -72 3 -90 14 -90 10 0 16 13 18 38 3 34 6 37 33 37 27 0
30 -3 33 -37 3 -30 7 -38 23 -38 17 0 19 8 19 90 0 83 -1 90 -20 90 -16 0 -20
-7 -20 -35 0 -33 -2 -35 -35 -35 -33 0 -35 2 -35 35 0 24 -5 35 -15 35 -12 0
-15 -17 -15 -90z"/>
<path d="M702 593 c3 -15 14 -18 58 -18 44 0 55 3 58 18 3 15 -5 17 -58 17
-53 0 -61 -2 -58 -17z"/>
<path d="M1242 525 c-23 -47 -42 -87 -42 -90 0 -3 8 -5 18 -5 12 0 26 17 42
50 13 28 26 50 30 50 4 0 17 -22 30 -50 16 -33 30 -50 42 -50 10 0 18 2 18 4
0 11 -83 176 -89 176 -4 0 -26 -38 -49 -85z"/>
<path d="M1754 597 c-3 -8 -4 -47 -2 -88 l3 -74 53 -3 c47 -3 53 -1 50 15 -2
12 -14 19 -36 21 l-32 3 0 70 c0 55 -3 69 -15 69 -9 0 -18 -6 -21 -13z"/>
<path d="M2212 593 c2 -10 9 -19 16 -19 6 -1 17 -2 22 -3 6 0 10 -32 10 -71 0
-63 2 -70 20 -70 18 0 20 7 20 75 0 55 3 73 13 70 17 -7 41 11 33 24 -4 6 -35
11 -72 11 -57 0 -65 -2 -62 -17z"/>
<path d="M2720 520 c0 -72 3 -90 14 -90 10 0 16 13 18 38 3 34 6 37 33 37 27
0 30 -3 33 -37 3 -30 7 -38 23 -38 18 0 20 6 17 87 -3 74 -6 88 -20 91 -15 3
-18 -4 -18 -32 0 -34 -2 -36 -35 -36 -33 0 -35 2 -35 35 0 24 -5 35 -15 35
-12 0 -15 -17 -15 -90z"/>
<path d="M702 523 c2 -12 14 -16 48 -16 34 0 46 4 48 16 3 14 -5 17 -48 17
-43 0 -51 -3 -48 -17z"/>
<path d="M700 450 c0 -18 7 -20 60 -20 53 0 60 2 60 20 0 18 -7 20 -60 20 -53
0 -60 -2 -60 -20z"/>
<path d="M2590 334 c-141 -97 -368 -193 -553 -235 -203 -45 -497 -46 -690 -3
-178 40 -401 131 -536 218 -77 49 -130 65 -70 20 112 -84 329 -186 489 -230
178 -49 244 -58 455 -58 217 0 293 11 476 65 169 50 399 163 494 243 50 42 5
29 -65 -20z"/>
</g>
</svg>
