<svg version="1.1" id="Layer_1" xmlns="http://www.w3.org/2000/svg" xmlns:xlink="http://www.w3.org/1999/xlink" x="0px" y="0px"
	 width="100%" viewBox="0 0 513 486" enable-background="new 0 0 513 486" xml:space="preserve">
<path fill="#990201" opacity="1.000000" stroke="none" 
	d="
M16.000000,1.000000 
	C144.689316,1.000000 273.378632,1.000000 402.573425,1.348938 
	C405.707581,4.112061 408.336273,6.526246 411.004700,9.279732 
	C411.966217,10.747750 412.887939,11.876468 413.868347,13.150883 
	C413.927032,13.296580 413.919861,13.610650 413.818848,14.002104 
	C414.001556,15.931931 414.285248,17.470306 414.382751,19.373592 
	C414.131683,20.397806 414.010040,21.057104 414.009979,21.716413 
	C414.001678,106.054611 413.998322,190.392822 414.035767,274.731018 
	C414.036407,276.159821 414.536987,277.588440 414.860931,279.343872 
	C414.925934,280.112488 414.934265,280.554352 414.632751,281.163330 
	C409.130280,296.253052 397.628296,299.196320 383.305664,299.151672 
	C291.256195,298.864716 199.205429,298.999237 107.155098,299.043030 
	C105.073471,299.044037 102.992104,299.608002 100.568298,299.978210 
	C95.866562,303.830078 91.435684,307.536194 87.209999,311.463104 
	C86.396515,312.219055 86.387856,313.841095 85.922104,315.279663 
	C85.653946,315.766418 85.404205,315.940216 84.709381,316.008514 
	C82.402046,317.406342 80.369064,318.692261 78.561470,320.241211 
	C72.400093,325.520874 66.170967,330.735931 60.247822,336.275177 
	C54.489002,341.660767 49.016155,347.358826 43.566929,353.062256 
	C42.655510,354.016174 42.503433,355.695618 41.914803,357.259338 
	C41.646481,357.754974 41.394402,357.932556 40.700649,358.002625 
	C36.447399,361.184753 32.403934,364.200043 28.719858,367.604279 
	C21.477459,374.296570 14.434758,381.204987 7.309440,388.023987 
	C6.872890,387.843170 6.436339,387.662323 5.999788,387.481506 
	C5.999788,385.578186 5.999943,383.674835 5.999766,381.771484 
	C5.988462,259.836151 5.977129,137.900818 5.977169,15.984180 
	C5.988540,16.002884 5.955130,15.968000 6.330808,15.912624 
	C7.119709,14.229741 7.532933,12.602233 7.965927,10.986167 
	C7.985698,10.997608 7.965521,10.956968 8.213318,10.853459 
	C8.622462,10.439804 8.783811,10.129658 8.967976,9.453461 
	C9.907734,7.933021 10.782134,6.741411 11.751805,5.633160 
	C13.131171,4.056664 14.580539,2.541415 16.000000,1.000000 
M125.152168,254.219025 
	C125.453102,254.224777 125.754044,254.230530 126.597672,254.174026 
	C126.777557,254.145813 126.957443,254.117584 127.481079,254.041809 
	C127.481079,254.041809 127.821922,254.106949 128.489288,254.658020 
	C142.133560,254.759094 155.777802,254.870743 169.422256,254.925079 
	C170.007904,254.927414 170.595627,254.400421 171.524033,254.047409 
	C171.524033,254.047409 171.871399,254.083954 172.772507,254.069199 
	C173.211212,253.475342 174.033554,252.880783 174.032486,252.287720 
	C174.006393,237.846451 173.892624,223.405365 173.546585,208.264145 
	C173.255905,208.110001 172.965881,207.822281 172.674469,207.820892 
	C157.721176,207.749695 142.767700,207.680222 127.814659,207.733643 
	C127.198151,207.735840 126.585846,208.914932 125.954453,209.516632 
	C125.954453,209.516632 125.938225,209.552368 125.412918,210.271072 
	C125.434334,224.469925 125.455750,238.668762 125.132652,253.292084 
	C125.132645,253.474319 125.132629,253.656540 125.152168,254.219025 
M319.104553,231.275879 
	C319.057159,230.142990 319.009735,229.010086 319.204041,227.130707 
	C319.204041,220.732666 319.204041,214.334641 319.204041,207.601181 
	C303.326874,207.601181 288.106903,207.577393 272.887848,207.682892 
	C272.237732,207.687393 271.595978,208.887939 271.008972,209.593567 
	C271.008972,209.593567 270.952362,209.657639 270.736694,210.150406 
	C270.700226,210.325897 270.663788,210.501373 270.239288,211.448303 
	C270.200073,224.473541 270.107544,237.499207 270.210571,250.523315 
	C270.220032,251.720856 271.477173,252.908524 272.510254,254.065445 
	C272.510254,254.065445 272.860291,254.135834 273.525208,254.675842 
	C287.487183,254.768478 301.449127,254.871307 315.411255,254.918228 
	C315.998932,254.920212 316.588379,254.402100 317.533264,254.048965 
	C317.533264,254.048965 317.896454,254.080215 318.661926,253.905548 
	C318.763397,246.642136 318.864838,239.378738 319.104553,231.275879 
M270.662262,47.259010 
	C270.662262,47.259010 270.789673,47.129639 270.553009,47.624916 
	C270.566406,47.989441 270.579803,48.353962 270.195007,49.480145 
	C270.149872,93.099831 270.098267,136.719513 270.097656,180.339203 
	C270.097656,181.404953 270.664520,182.470718 270.965454,183.497375 
	C270.965454,183.497375 270.956055,183.459366 270.959625,184.420868 
	C272.237335,184.636215 273.514465,185.034531 274.792877,185.038742 
	C288.260834,185.083145 301.729034,185.076569 315.197052,185.043854 
	C316.451904,185.040817 317.706085,184.762238 319.006653,184.606064 
	C319.156555,183.616196 319.339355,182.973602 319.338989,182.331085 
	C319.314545,137.770813 319.282471,93.210518 319.185699,48.650383 
	C319.183807,47.776649 318.407349,46.904602 317.066681,45.873600 
	C301.732605,45.962460 286.398529,46.051315 270.615051,46.098598 
	C270.498352,46.192532 270.275665,46.297958 270.284393,46.378296 
	C270.313446,46.646099 270.425415,46.904903 270.662262,47.259010 
M125.969833,184.029800 
	C125.969833,184.029800 125.962639,183.935486 126.285721,184.759811 
	C141.243210,184.848846 156.200668,184.951202 171.158279,184.980072 
	C171.782288,184.981277 172.407623,184.296066 173.019012,184.022095 
	C173.019012,184.022095 172.926697,184.017899 173.704025,183.927536 
	C173.885574,181.045212 174.067108,178.162888 174.227249,174.598801 
	C174.442368,173.250671 174.364639,171.765472 174.920883,170.576996 
	C178.143021,163.692337 183.104691,158.559586 189.949326,154.994034 
	C202.167160,148.629395 212.631775,139.953995 219.834625,128.156998 
	C230.173691,111.223442 229.104019,93.345001 219.613297,76.908562 
	C211.497452,62.853252 198.135574,54.278076 182.177475,49.876736 
	C171.739639,46.997917 161.209396,47.277653 150.602036,46.817383 
	C139.661255,46.342644 129.122559,47.926296 119.332512,52.206581 
	C111.456398,55.650078 103.624252,60.082336 97.195259,65.703110 
	C90.479225,71.574829 87.552887,80.382240 85.020699,89.405983 
	C85.027298,92.919792 85.033897,96.433594 84.987366,99.985748 
	C84.987366,99.985748 85.000977,99.921654 84.673515,100.668930 
	C84.767708,100.924049 84.861900,101.179176 85.269539,102.140366 
	C86.339188,102.427185 87.404572,102.945816 88.479141,102.965630 
	C102.083290,103.216331 115.688614,103.424515 129.294403,103.494850 
	C129.892929,103.497955 130.498840,102.073479 130.950577,101.198868 
	C130.950577,101.198868 131.038239,101.030685 131.582275,100.820923 
	C131.587570,100.464943 131.592865,100.108955 131.649780,99.280540 
	C131.649780,99.280540 131.771881,98.821236 132.239197,98.662689 
	C132.158432,98.107590 132.077667,97.552483 132.058014,96.302444 
	C132.052780,95.839729 132.047546,95.377022 132.301773,94.236847 
	C133.330399,92.097984 134.010529,89.683830 135.446121,87.866425 
	C142.895508,78.435707 153.171494,78.548958 163.190552,81.311371 
	C170.336456,83.281593 176.855484,87.791512 178.396667,95.968246 
	C180.561417,107.453239 179.450699,118.673347 170.280014,126.989464 
	C163.018341,133.574448 154.873871,139.217117 146.915939,144.995255 
	C136.621796,152.469666 128.614151,161.377335 126.075356,174.781372 
	C126.071648,177.866226 126.067940,180.951080 125.969833,184.029800 
z"/>
<path fill="#000000" opacity="1.000000" stroke="none" 
	d="
M15.527336,1.000000 
	C14.580539,2.541415 13.131171,4.056664 11.751805,5.633160 
	C10.782134,6.741411 9.907734,7.933021 8.729513,9.571955 
	C8.300663,10.356658 8.133092,10.656813 7.965521,10.956968 
	C7.965521,10.956968 7.985698,10.997608 7.664981,11.163197 
	C6.881219,12.875191 6.418174,14.421596 5.955130,15.968000 
	C5.955130,15.968000 5.988540,16.002884 5.669108,16.160686 
	C4.890499,17.588675 4.431322,18.858862 3.557796,20.268227 
	C3.094744,22.068705 3.003501,23.730003 3.003406,25.391306 
	C2.996618,143.609589 2.997075,261.827881 2.996968,380.046173 
	C2.996964,383.542725 2.903639,387.043640 3.065866,390.532654 
	C3.104300,391.359192 4.000737,392.145844 4.827011,393.023743 
	C17.125311,381.401611 29.099096,369.706604 41.072884,358.011566 
	C41.394402,357.932556 41.646481,357.754974 42.270462,357.242340 
	C43.168091,356.846527 43.751175,356.815979 44.062443,356.509399 
	C57.752346,343.027283 71.418259,329.520752 85.087051,316.017181 
	C85.404205,315.940216 85.653946,315.766418 86.277618,315.257141 
	C91.476463,310.404694 96.233955,305.790802 101.456161,301.102112 
	C196.764038,301.019470 291.607208,301.012451 386.450378,300.998199 
	C388.611084,300.997894 390.771759,300.916046 393.343811,300.916626 
	C406.075745,299.866516 413.262421,292.683716 416.357758,281.012024 
	C416.837280,280.133514 416.992554,279.478088 416.992615,278.822632 
	C417.001007,193.341705 417.001923,107.860771 416.955017,22.379860 
	C416.954376,21.224680 416.341949,20.069836 416.010620,18.957100 
	C416.006195,18.999361 416.031677,18.917704 416.093689,18.525827 
	C415.410400,16.626181 414.665131,15.118410 413.919861,13.610644 
	C413.919861,13.610650 413.927032,13.296580 413.771332,12.841404 
	C412.732056,11.237631 411.848511,10.089035 410.964935,8.940435 
	C408.336273,6.526246 405.707581,4.112061 403.039459,1.348938 
	C439.939056,1.000000 476.878082,1.000000 514.000000,1.000000 
	C514.000000,52.354084 514.000000,103.708382 513.730713,155.829330 
	C512.902893,156.079712 512.344299,155.563446 511.850952,154.695831 
	C507.971558,145.179321 498.506958,138.547913 489.879242,138.634247 
	C481.178131,138.175568 472.667389,138.120224 463.713074,138.144150 
	C463.177124,140.541214 463.005341,142.858963 463.003876,145.176804 
	C462.961853,212.108200 462.936859,279.039612 462.446411,345.987915 
	C351.301666,346.003510 240.619629,346.001587 129.937576,346.008728 
	C128.611374,346.008820 127.285179,346.126587 125.523880,346.114502 
	C124.724846,346.953094 124.056480,347.862854 124.045334,348.780609 
	C123.959549,355.845490 123.952065,362.912628 124.051620,369.977203 
	C124.068298,371.160156 124.720779,372.334137 125.065613,373.483765 
	C125.051743,373.455231 124.988876,373.463654 124.958321,373.903076 
	C125.941803,376.178894 126.955849,378.015259 127.985649,380.230652 
	C129.687195,386.576141 139.041779,393.799011 147.125153,393.390808 
	C148.604080,393.872681 149.928833,393.990143 151.253601,393.990265 
	C237.380447,393.998505 323.507294,393.995911 409.634125,394.005035 
	C411.792175,394.005249 413.950195,394.125702 416.225952,394.495422 
	C425.789734,403.576416 435.348755,412.234222 444.654388,421.156342 
	C457.477600,433.451141 470.029510,446.028870 482.850372,458.326172 
	C491.861328,466.969147 501.126709,475.346802 510.236511,484.209595 
	C510.463013,485.384186 510.731506,486.192078 511.000000,487.000000 
	C341.074951,487.000000 171.149902,487.000000 1.112428,487.000000 
	C1.112428,325.000061 1.112428,163.000046 1.112428,1.000000 
	C5.725323,1.000000 10.389997,1.000000 15.527336,1.000000 
z"/>
<path fill="#CA7673" opacity="1.000000" stroke="none" 
	d="
M511.785736,155.047180 
	C512.344299,155.563446 512.902893,156.079712 513.730713,156.297989 
	C514.000000,218.354233 514.000000,280.708466 513.780945,343.642395 
	C513.561890,344.222076 513.103149,344.046570 512.747681,343.779785 
	C512.230225,341.372314 511.927673,339.231689 511.926697,337.090973 
	C511.900238,280.164978 511.907074,223.239014 511.899048,166.313034 
	C511.898529,162.557755 511.825195,158.802475 511.785736,155.047180 
z"/>
<path fill="#CA7673" opacity="1.000000" stroke="none" 
	d="
M511.500000,487.000000 
	C510.731506,486.192078 510.463013,485.384186 510.626373,484.175171 
	C511.372253,482.246490 511.949219,480.720551 511.958618,479.191101 
	C512.033264,467.052612 511.972260,454.913269 512.033875,442.774658 
	C512.041870,441.193115 512.510315,439.613922 513.073120,437.991455 
	C513.587219,437.966187 513.793640,437.983093 514.000000,438.000000 
	C514.000000,453.333344 514.018555,468.666718 513.965759,483.999878 
	C513.961365,485.269653 515.085022,487.612244 511.500000,487.000000 
z"/>
<path fill="#FFFFFF" opacity="1.000000" stroke="none" 
	d="
M514.000000,437.531342 
	C513.793640,437.983093 513.587219,437.966187 513.024414,437.522430 
	C512.663940,407.541748 512.653503,377.987915 512.674866,348.434113 
	C512.675903,346.971497 512.954041,345.509094 513.103149,344.046570 
	C513.103149,344.046570 513.561890,344.222076 513.780945,344.111023 
	C514.000000,375.020905 514.000000,406.041779 514.000000,437.531342 
z"/>
<path fill="#000000" opacity="1.000000" stroke="none" 
	d="
M126.653976,174.508728 
	C128.614151,161.377335 136.621796,152.469666 146.915939,144.995255 
	C154.873871,139.217117 163.018341,133.574448 170.280014,126.989464 
	C179.450699,118.673347 180.561417,107.453239 178.396667,95.968246 
	C176.855484,87.791512 170.336456,83.281593 163.190552,81.311371 
	C153.171494,78.548958 142.895508,78.435707 135.446121,87.866425 
	C134.010529,89.683830 133.330399,92.097984 131.796936,94.731888 
	C131.002090,98.601303 129.573105,100.154015 125.783707,100.083855 
	C112.193115,99.832191 98.595772,99.946014 85.000977,99.921654 
	C85.000977,99.921654 84.987366,99.985748 85.062271,99.556870 
	C85.332008,95.822266 85.526840,92.516533 85.721680,89.210800 
	C87.552887,80.382240 90.479225,71.574829 97.195259,65.703110 
	C103.624252,60.082336 111.456398,55.650078 119.332512,52.206581 
	C129.122559,47.926296 139.661255,46.342644 150.602036,46.817383 
	C161.209396,47.277653 171.739639,46.997917 182.177475,49.876736 
	C198.135574,54.278076 211.497452,62.853252 219.613297,76.908562 
	C229.104019,93.345001 230.173691,111.223442 219.834625,128.156998 
	C212.631775,139.953995 202.167160,148.629395 189.949326,154.994034 
	C183.104691,158.559586 178.143021,163.692337 174.920883,170.576996 
	C174.364639,171.765472 174.442368,173.250671 174.241028,175.351273 
	C173.812103,178.741791 173.369400,181.379852 172.926697,184.017899 
	C172.926697,184.017899 173.019012,184.022095 172.554718,183.996094 
	C156.714508,183.958557 141.338577,183.947021 125.962639,183.935486 
	C125.962639,183.935486 125.969833,184.029800 126.100800,183.633362 
	C126.372505,180.327530 126.513245,177.418121 126.653976,174.508728 
z"/>
<path fill="#000000" opacity="1.000000" stroke="none" 
	d="
M270.956055,183.459366 
	C270.956055,183.459366 270.965454,183.497375 271.263000,183.161743 
	C271.648651,176.186234 271.736755,169.546371 271.906250,162.450226 
	C272.036041,123.675331 272.084442,85.356689 272.592743,47.026237 
	C288.016022,47.053169 302.979370,47.091919 317.942932,47.591125 
	C317.943115,93.290230 317.943115,138.528870 317.943115,183.960312 
	C311.134552,183.960312 304.984070,184.020798 298.835236,183.946152 
	C289.541565,183.833344 280.249054,183.626358 270.956055,183.459366 
z"/>
<path fill="#000000" opacity="1.000000" stroke="none" 
	d="
M317.896454,254.080215 
	C317.896454,254.080215 317.533264,254.048965 316.867096,254.041473 
	C301.754059,254.067917 287.307159,254.101868 272.860291,254.135834 
	C272.860291,254.135834 272.510254,254.065445 272.297272,253.607498 
	C272.019012,248.442123 271.953766,243.734680 271.940186,238.556549 
	C271.994598,230.124725 272.051300,222.162918 271.952606,214.203064 
	C271.933777,212.684006 271.301575,211.172577 270.952362,209.657639 
	C270.952362,209.657639 271.008972,209.593567 271.408997,209.348709 
	C285.907227,209.092468 300.005524,209.055115 314.103516,209.111481 
	C315.452850,209.116882 316.799866,209.706375 318.081482,210.487732 
	C318.058746,223.959412 318.102478,236.968079 318.068665,250.380432 
	C317.959625,251.882828 317.928040,252.981522 317.896454,254.080215 
z"/>
<path fill="#000000" opacity="1.000000" stroke="none" 
	d="
M171.871399,254.083954 
	C171.871399,254.083954 171.524033,254.047409 170.864960,254.035004 
	C156.077911,254.050720 141.949921,254.078827 127.821922,254.106934 
	C127.821922,254.106949 127.481079,254.041809 127.267975,253.786285 
	C126.995438,253.352814 126.936005,253.174866 126.933929,252.531555 
	C126.994186,239.592072 127.037315,227.117661 126.952820,214.644119 
	C126.941307,212.944656 126.292145,211.249512 125.938217,209.552368 
	C125.938225,209.552368 125.954453,209.516632 126.383102,209.302872 
	C142.164673,209.074097 157.517593,209.059067 172.925568,209.507324 
	C172.988571,222.954987 173.038437,235.939621 172.954086,248.923401 
	C172.942902,250.645859 172.249084,252.363876 171.871399,254.083954 
z"/>
<path fill="#8C110F" opacity="1.000000" stroke="none" 
	d="
M3.972145,20.129049 
	C4.431322,18.858862 4.890499,17.588675 5.657737,16.141983 
	C5.977129,137.900818 5.988462,259.836151 5.999766,381.771484 
	C5.999943,383.674835 5.999788,385.578186 5.999788,387.481506 
	C6.436339,387.662323 6.872890,387.843170 7.309440,388.023987 
	C14.434758,381.204987 21.477459,374.296570 28.719858,367.604279 
	C32.403934,364.200043 36.447399,361.184753 40.700645,358.002625 
	C29.099096,369.706604 17.125311,381.401611 4.853412,392.559387 
	C4.474637,389.862671 4.323534,387.703186 4.323401,385.543701 
	C4.316210,269.229980 4.326551,152.916290 4.310902,36.602589 
	C4.310163,31.111393 4.090078,25.620228 3.972145,20.129049 
z"/>
<path fill="#8C110F" opacity="1.000000" stroke="none" 
	d="
M414.804321,279.017120 
	C414.536987,277.588440 414.036407,276.159821 414.035767,274.731018 
	C413.998322,190.392822 414.001678,106.054611 414.009979,21.716413 
	C414.010040,21.057104 414.131683,20.397806 414.760101,19.535177 
	C415.559631,19.193802 415.795654,19.055752 416.031677,18.917704 
	C416.031677,18.917704 416.006195,18.999361 415.766937,19.377357 
	C415.589630,20.918140 415.705902,22.080933 415.705780,23.243711 
	C415.697876,107.460434 415.680725,191.677170 415.472900,276.042633 
	C415.085236,276.476990 415.030884,276.787445 415.068909,277.440308 
	C414.947693,278.177612 414.876007,278.597351 414.804321,279.017120 
z"/>
<path fill="#8C110F" opacity="1.000000" stroke="none" 
	d="
M415.961060,281.235046 
	C413.262421,292.683716 406.075745,299.866516 393.068542,300.606812 
	C391.557007,300.175110 390.732056,300.029846 389.907135,300.029877 
	C293.623749,300.032928 197.340363,300.046783 101.020477,300.022278 
	C100.983978,299.984497 100.910614,299.909363 100.910614,299.909363 
	C102.992104,299.608002 105.073471,299.044037 107.155098,299.043030 
	C199.205429,298.999237 291.256195,298.864716 383.305664,299.151672 
	C397.628296,299.196320 409.130280,296.253052 414.889709,281.213562 
	C415.624664,281.142792 415.792877,281.188934 415.961060,281.235046 
z"/>
<path fill="#FFE6E6" opacity="1.000000" stroke="none" 
	d="
M416.357758,281.012024 
	C415.792877,281.188934 415.624664,281.142792 415.199554,281.046448 
	C414.934265,280.554352 414.925934,280.112488 414.860962,279.343872 
	C414.876007,278.597351 414.947693,278.177612 415.306305,277.310455 
	C415.616943,276.540009 415.640656,276.216949 415.664337,275.893890 
	C415.680725,191.677170 415.697876,107.460434 415.705780,23.243711 
	C415.705902,22.080933 415.589630,20.918140 415.771362,19.335094 
	C416.341949,20.069836 416.954376,21.224680 416.955017,22.379860 
	C417.001923,107.860771 417.001007,193.341705 416.992615,278.822632 
	C416.992554,279.478088 416.837280,280.133514 416.357758,281.012024 
z"/>
<path fill="#DF9B9B" opacity="1.000000" stroke="none" 
	d="
M270.957825,183.940125 
	C280.249054,183.626358 289.541565,183.833344 298.835236,183.946152 
	C304.984070,184.020798 311.134552,183.960312 317.943115,183.960312 
	C317.943115,138.528870 317.943115,93.290230 317.959534,47.316719 
	C317.981384,46.398483 317.986816,46.215122 317.992279,46.031769 
	C318.407349,46.904602 319.183807,47.776649 319.185699,48.650383 
	C319.282471,93.210518 319.314545,137.770813 319.338989,182.331085 
	C319.339355,182.973602 319.156555,183.616196 319.006653,184.606064 
	C317.706085,184.762238 316.451904,185.040817 315.197052,185.043854 
	C301.729034,185.076569 288.260834,185.083145 274.792877,185.038742 
	C273.514465,185.034531 272.237335,184.636215 270.957825,183.940125 
z"/>
<path fill="#DF9B9B" opacity="1.000000" stroke="none" 
	d="
M271.824829,162.906494 
	C271.736755,169.546371 271.648651,176.186234 271.263794,183.181290 
	C270.664520,182.470718 270.097656,181.404953 270.097656,180.339203 
	C270.098267,136.719513 270.149872,93.099831 270.577576,49.557503 
	C271.003540,85.644447 271.036774,121.654045 271.121307,157.663528 
	C271.125427,159.411713 271.580017,161.158859 271.824829,162.906494 
z"/>
<path fill="#8C110F" opacity="1.000000" stroke="none" 
	d="
M84.709381,316.008514 
	C71.418259,329.520752 57.752346,343.027283 44.062443,356.509399 
	C43.751175,356.815979 43.168091,356.846527 42.356136,357.022827 
	C42.503433,355.695618 42.655510,354.016174 43.566929,353.062256 
	C49.016155,347.358826 54.489002,341.660767 60.247822,336.275177 
	C66.170967,330.735931 72.400093,325.520874 78.561470,320.241211 
	C80.369064,318.692261 82.402046,317.406342 84.709381,316.008514 
z"/>
<path fill="#E9A7A7" opacity="1.000000" stroke="none" 
	d="
M318.147949,210.024719 
	C316.799866,209.706375 315.452850,209.116882 314.103516,209.111481 
	C300.005524,209.055115 285.907227,209.092468 271.379669,209.317596 
	C271.595978,208.887939 272.237732,207.687393 272.887848,207.682892 
	C288.106903,207.577393 303.326874,207.601181 319.204041,207.601181 
	C319.204041,214.334641 319.204041,220.732666 319.063721,227.047104 
	C318.664917,221.317245 318.406433,215.670975 318.147949,210.024719 
z"/>
<path fill="#FFFFFF" opacity="1.000000" stroke="none" 
	d="
M271.906250,162.450226 
	C271.580017,161.158859 271.125427,159.411713 271.121307,157.663528 
	C271.036774,121.654045 271.003540,85.644447 270.776642,49.176674 
	C270.579803,48.353962 270.566406,47.989441 271.006836,47.349491 
	C271.684692,47.062057 271.908752,47.050053 272.132812,47.038052 
	C272.084442,85.356689 272.036041,123.675331 271.906250,162.450226 
z"/>
<path fill="#EBB6B5" opacity="1.000000" stroke="none" 
	d="
M172.870514,209.044037 
	C157.517593,209.059067 142.164673,209.074097 126.391663,209.317413 
	C126.585846,208.914932 127.198151,207.735840 127.814659,207.733643 
	C142.767700,207.680222 157.721176,207.749695 172.674469,207.820892 
	C172.965881,207.822281 173.255905,208.110001 173.437958,208.614838 
	C173.329315,208.965546 172.870514,209.044052 172.870514,209.044037 
z"/>
<path fill="#890403" opacity="1.000000" stroke="none" 
	d="
M131.101303,101.313972 
	C130.498840,102.073479 129.892929,103.497955 129.294403,103.494850 
	C115.688614,103.424515 102.083290,103.216331 88.479141,102.965630 
	C87.404572,102.945816 86.339188,102.427185 85.581512,101.741348 
	C100.962753,101.332886 116.032028,101.323433 131.101303,101.313972 
z"/>
<path fill="#FFFFFF" opacity="1.000000" stroke="none" 
	d="
M125.675568,209.911713 
	C126.292145,211.249512 126.941307,212.944656 126.952820,214.644119 
	C127.037315,227.117661 126.994186,239.592072 126.697418,252.528290 
	C126.108589,252.845139 125.799797,252.804214 125.477173,252.867615 
	C125.455750,238.668762 125.434334,224.469925 125.675568,209.911713 
z"/>
<path fill="#E9A7A7" opacity="1.000000" stroke="none" 
	d="
M271.888489,239.027252 
	C271.953766,243.734680 272.019012,248.442123 272.119629,253.625168 
	C271.477173,252.908524 270.220032,251.720856 270.210571,250.523315 
	C270.107544,237.499207 270.200073,224.473541 270.612122,211.526184 
	C271.029785,214.730682 271.019287,217.859299 271.131348,220.983505 
	C271.347076,226.999405 271.632172,233.012817 271.888489,239.027252 
z"/>
<path fill="#FDDDDD" opacity="1.000000" stroke="none" 
	d="
M131.025940,101.256424 
	C116.032028,101.323433 100.962753,101.332886 85.424789,101.388321 
	C84.861900,101.179176 84.767708,100.924049 84.837250,100.295288 
	C98.595772,99.946014 112.193115,99.832191 125.783707,100.083855 
	C129.573105,100.154015 131.002090,98.601303 131.667206,95.070618 
	C132.047546,95.377022 132.052780,95.839729 131.857666,96.927002 
	C131.695511,97.974777 131.733704,98.398010 131.771881,98.821236 
	C131.771881,98.821236 131.649780,99.280540 131.445251,99.682632 
	C131.088913,100.382004 131.021423,100.697319 131.038239,101.030685 
	C131.038239,101.030685 130.950577,101.198868 131.025940,101.256424 
z"/>
<path fill="#8C110F" opacity="1.000000" stroke="none" 
	d="
M100.991455,301.176880 
	C96.233955,305.790802 91.476463,310.404694 86.363441,315.041077 
	C86.387856,313.841095 86.396515,312.219055 87.209999,311.463104 
	C91.435684,307.536194 95.866562,303.830078 100.568298,299.978210 
	C100.910614,299.909363 100.983978,299.984497 100.987900,300.300385 
	C100.991699,300.803131 100.991577,300.990021 100.991455,301.176880 
z"/>
<path fill="#DDA3A3" opacity="1.000000" stroke="none" 
	d="
M126.124176,184.347656 
	C141.338577,183.947021 156.714508,183.958557 172.561401,183.950378 
	C172.407623,184.296066 171.782288,184.981277 171.158279,184.980072 
	C156.200668,184.951202 141.243210,184.848846 126.124176,184.347656 
z"/>
<path fill="#FFE3E1" opacity="1.000000" stroke="none" 
	d="
M272.592743,47.026237 
	C271.908752,47.050053 271.684692,47.062057 271.125153,47.101852 
	C270.789673,47.129639 270.662262,47.259010 270.787354,46.990700 
	C270.963135,46.528316 271.013794,46.334248 271.064453,46.140175 
	C286.398529,46.051315 301.732605,45.962460 317.529480,45.952682 
	C317.986816,46.215122 317.981384,46.398483 317.959320,46.856258 
	C302.979370,47.091919 288.016022,47.053169 272.592743,47.026237 
z"/>
<path fill="#E69B9E" opacity="1.000000" stroke="none" 
	d="
M172.925568,209.507324 
	C172.870514,209.044052 173.329315,208.965546 173.561966,208.964890 
	C173.892624,223.405365 174.006393,237.846451 174.032486,252.287720 
	C174.033554,252.880783 173.211212,253.475342 172.321960,254.076569 
	C172.249084,252.363876 172.942902,250.645859 172.954086,248.923401 
	C173.038437,235.939621 172.988571,222.954987 172.925568,209.507324 
z"/>
<path fill="#8B3633" opacity="1.000000" stroke="none" 
	d="
M273.192749,254.405838 
	C287.307159,254.101868 301.754059,254.067917 316.688965,254.080124 
	C316.588379,254.402100 315.998932,254.920212 315.411255,254.918228 
	C301.449127,254.871307 287.487183,254.768478 273.192749,254.405838 
z"/>
<path fill="#8B3633" opacity="1.000000" stroke="none" 
	d="
M128.155609,254.382477 
	C141.949921,254.078827 156.077911,254.050720 170.694138,254.071304 
	C170.595627,254.400421 170.007904,254.927414 169.422256,254.925079 
	C155.777802,254.870743 142.133560,254.759094 128.155609,254.382477 
z"/>
<path fill="#EBB6B5" opacity="1.000000" stroke="none" 
	d="
M318.081482,210.487732 
	C318.406433,215.670975 318.664917,221.317245 318.942871,227.420349 
	C319.009735,229.010086 319.057159,230.142990 319.014648,232.152466 
	C318.665192,238.678284 318.405701,244.327499 318.146179,249.976730 
	C318.102478,236.968079 318.058746,223.959412 318.081482,210.487732 
z"/>
<path fill="#FFFFFF" opacity="1.000000" stroke="none" 
	d="
M271.940186,238.556549 
	C271.632172,233.012817 271.347076,226.999405 271.131348,220.983505 
	C271.019287,217.859299 271.029785,214.730682 270.806152,211.140472 
	C270.663788,210.501373 270.700226,210.325897 270.844543,209.904022 
	C271.301575,211.172577 271.933777,212.684006 271.952606,214.203064 
	C272.051300,222.162918 271.994598,230.124725 271.940186,238.556549 
z"/>
<path fill="#E9A7A7" opacity="1.000000" stroke="none" 
	d="
M318.068665,250.380432 
	C318.405701,244.327499 318.665192,238.678284 318.945496,232.572189 
	C318.864838,239.378738 318.763397,246.642136 318.279175,253.992889 
	C317.928040,252.981522 317.959625,251.882828 318.068665,250.380432 
z"/>
<path fill="#BF6162" opacity="1.000000" stroke="none" 
	d="
M85.371185,89.308395 
	C85.526840,92.516533 85.332008,95.822266 85.088837,99.537704 
	C85.033897,96.433594 85.027298,92.919792 85.371185,89.308395 
z"/>
<path fill="#DDA3A3" opacity="1.000000" stroke="none" 
	d="
M126.364670,174.645050 
	C126.513245,177.418121 126.372505,180.327530 126.147995,183.636429 
	C126.067940,180.951080 126.071648,177.866226 126.364670,174.645050 
z"/>
<path fill="#DDA3A3" opacity="1.000000" stroke="none" 
	d="
M173.315369,183.972717 
	C173.369400,181.379852 173.812103,178.741791 174.251740,175.692154 
	C174.067108,178.162888 173.885574,181.045212 173.315369,183.972717 
z"/>
<path fill="#8C110F" opacity="1.000000" stroke="none" 
	d="
M6.330808,15.912624 
	C6.418174,14.421596 6.881219,12.875191 7.645210,11.151756 
	C7.532933,12.602233 7.119709,14.229741 6.330808,15.912624 
z"/>
<path fill="#B26363" opacity="1.000000" stroke="none" 
	d="
M416.093689,18.525827 
	C415.795654,19.055752 415.559631,19.193802 414.946289,19.170265 
	C414.285248,17.470306 414.001556,15.931931 413.818878,14.002098 
	C414.665131,15.118410 415.410400,16.626181 416.093689,18.525827 
z"/>
<path fill="#B26363" opacity="1.000000" stroke="none" 
	d="
M411.004700,9.279736 
	C411.848511,10.089035 412.732056,11.237631 413.712646,12.695705 
	C412.887939,11.876468 411.966217,10.747750 411.004700,9.279736 
z"/>
<path fill="#BF6162" opacity="1.000000" stroke="none" 
	d="
M132.005539,98.741959 
	C131.733704,98.398010 131.695511,97.974777 131.827118,97.274467 
	C132.077667,97.552483 132.158432,98.107590 132.005539,98.741959 
z"/>
<path fill="#EBB6B5" opacity="1.000000" stroke="none" 
	d="
M125.304916,253.079849 
	C125.799797,252.804214 126.108589,252.845139 126.640068,252.993652 
	C126.936005,253.174866 126.995438,253.352814 127.096100,253.810074 
	C126.957443,254.117584 126.777557,254.145813 126.115089,254.060364 
	C125.465881,253.910736 125.299255,253.874756 125.132622,253.838776 
	C125.132629,253.656540 125.132645,253.474319 125.304916,253.079849 
z"/>
<path fill="#8B3633" opacity="1.000000" stroke="none" 
	d="
M125.142395,254.028900 
	C125.299255,253.874756 125.465881,253.910736 125.843742,254.091492 
	C125.754044,254.230530 125.453102,254.224777 125.142395,254.028900 
z"/>
<path fill="#DF9B9B" opacity="1.000000" stroke="none" 
	d="
M270.839752,46.119385 
	C271.013794,46.334248 270.963135,46.528316 270.709045,46.944771 
	C270.425415,46.904903 270.313446,46.646099 270.284393,46.378296 
	C270.275665,46.297958 270.498352,46.192532 270.839752,46.119385 
z"/>
<path fill="#BF6162" opacity="1.000000" stroke="none" 
	d="
M131.310257,100.925804 
	C131.021423,100.697319 131.088913,100.382004 131.419434,99.918854 
	C131.592865,100.108955 131.587570,100.464943 131.310257,100.925804 
z"/>
<path fill="#8C110F" opacity="1.000000" stroke="none" 
	d="
M8.213318,10.853459 
	C8.133092,10.656813 8.300663,10.356658 8.706697,9.938007 
	C8.783811,10.129658 8.622462,10.439804 8.213318,10.853459 
z"/>
<path fill="#980202" opacity="1.000000" stroke="none" 
	d="
M512.747681,343.779785 
	C512.954041,345.509094 512.675903,346.971497 512.674866,348.434113 
	C512.653503,377.987915 512.663940,407.541748 512.716736,437.564575 
	C512.510315,439.613922 512.041870,441.193115 512.033875,442.774658 
	C511.972260,454.913269 512.033264,467.052612 511.958618,479.191101 
	C511.949219,480.720551 511.372253,482.246490 510.668365,483.808472 
	C501.126709,475.346802 491.861328,466.969147 482.850372,458.326172 
	C470.029510,446.028870 457.477600,433.451141 444.654388,421.156342 
	C435.348755,412.234222 425.789734,403.576416 416.047058,394.078888 
	C414.437164,393.226807 413.123901,392.982849 411.810608,392.982605 
	C323.530731,392.966431 235.250870,392.969879 146.970993,392.971649 
	C139.041779,393.799011 129.687195,386.576141 127.901581,379.874634 
	C126.864136,377.247620 125.926506,375.355621 124.988876,373.463654 
	C124.988876,373.463654 125.051743,373.455231 125.254272,373.187714 
	C125.473587,372.687225 125.490356,372.454254 125.653114,372.061035 
	C125.665581,371.527313 125.532059,371.153870 125.402512,370.326324 
	C125.493538,362.386810 125.580582,354.901367 125.963730,347.488251 
	C126.834183,347.374359 127.408516,347.188202 128.451935,347.029205 
	C238.620728,347.061401 348.320435,347.072113 458.020111,347.027344 
	C460.036774,347.026520 462.053192,346.365540 464.209167,345.809937 
	C464.348602,345.607269 464.450562,345.125946 464.624084,344.931824 
	C464.654480,344.115021 464.511322,343.492310 464.338806,342.410675 
	C464.319061,274.685974 464.328735,207.420242 464.669281,139.927780 
	C473.356628,139.479904 481.713135,139.258759 490.069611,139.037598 
	C498.506958,138.547913 507.971558,145.179321 511.850952,154.695831 
	C511.825195,158.802475 511.898529,162.557755 511.899048,166.313034 
	C511.907074,223.239014 511.900238,280.164978 511.926697,337.090973 
	C511.927673,339.231689 512.230225,341.372314 512.747681,343.779785 
z"/>
<path fill="#FFDDDD" opacity="1.000000" stroke="none" 
	d="
M3.557796,20.268227 
	C4.090078,25.620228 4.310163,31.111393 4.310902,36.602589 
	C4.326551,152.916290 4.316210,269.229980 4.323401,385.543701 
	C4.323534,387.703186 4.474637,389.862671 4.528898,392.486481 
	C4.000737,392.145844 3.104300,391.359192 3.065866,390.532654 
	C2.903639,387.043640 2.996964,383.542725 2.996968,380.046173 
	C2.997075,261.827881 2.996618,143.609589 3.003406,25.391306 
	C3.003501,23.730003 3.094744,22.068705 3.557796,20.268227 
z"/>
<path fill="#E1ABA9" opacity="1.000000" stroke="none" 
	d="
M464.069702,346.012604 
	C462.053192,346.365540 460.036774,347.026520 458.020111,347.027344 
	C348.320435,347.072113 238.620728,347.061401 128.100632,346.959412 
	C126.803146,346.825684 126.326057,346.788940 125.866524,346.609558 
	C125.884079,346.466949 125.958984,346.189423 125.958984,346.189392 
	C127.285179,346.126587 128.611374,346.008820 129.937576,346.008728 
	C240.619629,346.001587 351.301666,346.003510 462.736572,345.998108 
	C463.682861,345.998474 463.876282,346.005554 464.069702,346.012604 
z"/>
<path fill="#C76B6B" opacity="1.000000" stroke="none" 
	d="
M101.456154,301.102112 
	C100.991577,300.990021 100.991699,300.803131 101.024399,300.338135 
	C197.340363,300.046783 293.623749,300.032928 389.907135,300.029877 
	C390.732056,300.029846 391.557007,300.175110 392.657196,300.562378 
	C390.771759,300.916046 388.611084,300.997894 386.450378,300.998199 
	C291.607208,301.012451 196.764038,301.019470 101.456154,301.102112 
z"/>
<path fill="#F4C8CD" opacity="1.000000" stroke="none" 
	d="
M147.125153,393.390808 
	C235.250870,392.969879 323.530731,392.966431 411.810608,392.982605 
	C413.123901,392.982849 414.437164,393.226807 415.929321,393.773560 
	C413.950195,394.125702 411.792175,394.005249 409.634125,394.005035 
	C323.507294,393.995911 237.380447,393.998505 151.253601,393.990265 
	C149.928833,393.990143 148.604080,393.872681 147.125153,393.390808 
z"/>
<path fill="#F9C8C8" opacity="1.000000" stroke="none" 
	d="
M464.209167,345.809937 
	C463.876282,346.005554 463.682861,345.998474 463.199280,345.981201 
	C462.936859,279.039612 462.961853,212.108200 463.003876,145.176804 
	C463.005341,142.858963 463.177124,140.541214 463.755005,138.495575 
	C464.273132,139.229996 464.305786,139.692245 464.338409,140.154510 
	C464.328735,207.420242 464.319061,274.685974 464.216583,342.784668 
	C464.232697,344.120361 464.341644,344.623169 464.450562,345.125946 
	C464.450562,345.125946 464.348602,345.607269 464.209167,345.809937 
z"/>
<path fill="#FEDFDE" opacity="1.000000" stroke="none" 
	d="
M125.523880,346.114502 
	C125.958984,346.189423 125.884079,346.466949 125.770149,346.761841 
	C125.656219,347.056702 125.667633,347.415955 125.667633,347.415955 
	C125.580582,354.901367 125.493538,362.386810 125.302353,370.696198 
	C125.301193,371.753876 125.404160,371.987579 125.507126,372.221313 
	C125.490356,372.454254 125.473587,372.687225 125.268143,373.216248 
	C124.720779,372.334137 124.068298,371.160156 124.051620,369.977203 
	C123.952065,362.912628 123.959549,355.845490 124.045334,348.780609 
	C124.056480,347.862854 124.724846,346.953094 125.523880,346.114502 
z"/>
<path fill="#AB5555" opacity="1.000000" stroke="none" 
	d="
M464.669281,139.927780 
	C464.305786,139.692245 464.273132,139.229996 464.198547,138.416306 
	C472.667389,138.120224 481.178131,138.175568 489.879242,138.634262 
	C481.713135,139.258759 473.356628,139.479904 464.669281,139.927780 
z"/>
<path fill="#CC7879" opacity="1.000000" stroke="none" 
	d="
M124.958328,373.903076 
	C125.926506,375.355621 126.864136,377.247620 127.885834,379.495605 
	C126.955849,378.015259 125.941803,376.178894 124.958328,373.903076 
z"/>
<path fill="#B26363" opacity="1.000000" stroke="none" 
	d="
M415.472900,276.042633 
	C415.640656,276.216949 415.616943,276.540009 415.355835,276.992920 
	C415.030884,276.787445 415.085236,276.476990 415.472900,276.042633 
z"/>
<path fill="#AB5555" opacity="1.000000" stroke="none" 
	d="
M464.624084,344.931824 
	C464.341644,344.623169 464.232697,344.120361 464.245972,343.243591 
	C464.511322,343.492310 464.654480,344.115021 464.624084,344.931824 
z"/>
<path fill="#CC7879" opacity="1.000000" stroke="none" 
	d="
M125.963737,347.488251 
	C125.667633,347.415955 125.656219,347.056702 125.752594,346.904449 
	C126.326057,346.788940 126.803146,346.825684 127.631546,346.932220 
	C127.408516,347.188202 126.834183,347.374359 125.963737,347.488251 
z"/>
<path fill="#CC7879" opacity="1.000000" stroke="none" 
	d="
M125.653114,372.061035 
	C125.404160,371.987579 125.301193,371.753876 125.298386,371.150299 
	C125.532059,371.153870 125.665581,371.527313 125.653114,372.061035 
z"/>
</svg>
